<svg width="150" height="26" viewBox="0 0 150 26" fill="none" xmlns="http://www.w3.org/2000/svg">
<g clip-path="url(#clip0_6594_1185)">
<path d="M25.6452 26.0081H0.362903C0.16129 26.0081 0 25.8468 0 25.6452V0.362903C0 0.16129 0.16129 0 0.362903 0H13.0444C13.246 0 13.4073 0.16129 13.4073 0.362903V3.18548C13.4073 3.3871 13.246 3.54839 13.0444 3.54839H3.93145C3.72984 3.54839 3.56855 3.70968 3.56855 3.91129V22.0363C3.56855 22.2379 3.72984 22.3992 3.93145 22.3992H22.0564C22.2581 22.3992 22.4193 22.2379 22.4193 22.0363V13.0444C22.4193 12.8427 22.5806 12.6814 22.7823 12.6814H25.6048C25.8064 12.6814 25.9677 12.8427 25.9677 13.0444V25.6048C25.9677 25.8064 25.8064 25.9677 25.6048 25.9677L25.6452 26.0081Z" fill="white"/>
<path d="M25.9669 0.383167V9.79849C25.9669 10.0001 25.8056 10.1614 25.604 10.1614H22.7209C22.5193 10.1614 22.358 10.0001 22.358 9.79849V5.96784L17.3781 10.9477C17.237 11.0888 16.9951 11.0888 16.854 10.9477C16.4104 10.5041 15.483 9.57671 15.0394 9.13316C14.8983 8.99204 14.8983 8.7501 15.0394 8.60897L20.0193 3.62913H16.2491C16.0475 3.62913 15.8862 3.46784 15.8862 3.26623V0.383167C15.8862 0.181554 16.0475 0.0202637 16.2491 0.0202637H25.604C25.8056 0.0202637 25.9669 0.181554 25.9669 0.383167Z" fill="white"/>
<path d="M12.3799 11.2647L11.2536 12.3909C10.9151 12.7294 10.9151 13.2784 11.2536 13.6169L12.3799 14.7432C12.7184 15.0817 13.2674 15.0817 13.6059 14.7432L14.7321 13.6169C15.0707 13.2784 15.0707 12.7295 14.7321 12.3909L13.6059 11.2647C13.2674 10.9261 12.7184 10.9261 12.3799 11.2647Z" fill="white"/>
</g>
<path d="M132.918 22.691V2.60767H138.921C140.94 2.60767 142.659 2.90783 144.078 3.50814C145.497 4.10846 146.634 4.90888 147.489 5.90941C148.362 6.90994 148.999 8.02871 149.399 9.26573C149.8 10.5027 150 11.7489 150 13.0041C150 14.4958 149.727 15.8419 149.181 17.0426C148.654 18.225 147.926 19.2437 146.998 20.0987C146.07 20.9355 144.997 21.5813 143.778 22.0361C142.559 22.4727 141.268 22.691 139.903 22.691H132.918ZM136.875 18.8708H139.221C140.222 18.8708 141.131 18.7435 141.95 18.4888C142.769 18.2159 143.469 17.8248 144.051 17.3154C144.651 16.8061 145.106 16.1694 145.415 15.4053C145.743 14.6231 145.907 13.7317 145.907 12.7312C145.907 11.4214 145.688 10.3572 145.252 9.5386C144.833 8.7018 144.306 8.056 143.669 7.60121C143.051 7.14643 142.414 6.83717 141.759 6.67345C141.104 6.49154 140.549 6.40058 140.094 6.40058H136.875V18.8708Z" fill="white"/>
<path d="M114.742 2.60767H128.44V6.42787H118.699V10.7119H127.322V14.5321H118.699V18.8708H128.822V22.691H114.742V2.60767Z" fill="white"/>
<path d="M99.5425 9.7569L99.4333 10.7665L100.034 10.0025L106.583 2.60767H111.713L103.417 11.6124L111.74 22.691H106.719L100.525 14.1228L99.5425 15.1052V22.691H95.5312V2.60767H99.5425V9.7569Z" fill="white"/>
<path d="M71.0664 12.6767C71.0664 11.2941 71.3302 9.98432 71.8577 8.74731C72.3853 7.51029 73.1129 6.4188 74.0407 5.47285C74.9867 4.50871 76.0781 3.75376 77.3152 3.20802C78.5522 2.66228 79.8802 2.3894 81.2991 2.3894C82.6998 2.3894 84.0187 2.66228 85.2557 3.20802C86.4927 3.75376 87.5842 4.50871 88.5302 5.47285C89.4943 6.4188 90.2402 7.51029 90.7677 8.74731C91.3135 9.98432 91.5863 11.2941 91.5863 12.6767C91.5863 14.0956 91.3135 15.4236 90.7677 16.6606C90.2402 17.8976 89.4943 18.9891 88.5302 19.935C87.5842 20.8628 86.4927 21.5905 85.2557 22.118C84.0187 22.6456 82.6998 22.9093 81.2991 22.9093C79.8802 22.9093 78.5522 22.6456 77.3152 22.118C76.0781 21.5905 74.9867 20.8628 74.0407 19.935C73.1129 18.9891 72.3853 17.8976 71.8577 16.6606C71.3302 15.4236 71.0664 14.0956 71.0664 12.6767ZM75.1595 12.6767C75.1595 13.568 75.3141 14.4048 75.6234 15.1871C75.9508 15.9511 76.3965 16.6333 76.9604 17.2336C77.5426 17.8157 78.2065 18.2705 78.9524 18.598C79.7164 18.9254 80.5441 19.0891 81.4355 19.0891C82.2905 19.0891 83.0818 18.9254 83.8095 18.598C84.5554 18.2705 85.2011 17.8157 85.7469 17.2336C86.2926 16.6333 86.7201 15.9511 87.0294 15.1871C87.3386 14.4048 87.4933 13.568 87.4933 12.6767C87.4933 11.7671 87.3295 10.9212 87.0021 10.139C86.6928 9.35672 86.2562 8.67454 85.6923 8.09242C85.1466 7.4921 84.5008 7.02822 83.7549 6.70077C83.0091 6.37333 82.1996 6.2096 81.3264 6.2096C80.4532 6.2096 79.6437 6.37333 78.8978 6.70077C78.152 7.02822 77.4971 7.4921 76.9331 8.09242C76.3692 8.67454 75.9326 9.35672 75.6234 10.139C75.3141 10.9212 75.1595 11.7671 75.1595 12.6767Z" fill="white"/>
<path d="M56.5878 2.60767L62.4545 17.0699L60.1624 16.606L65.4834 2.60767H70.1768L61.0083 23.6188L51.8398 2.60767H56.5878Z" fill="white"/>
<path d="M35.3867 2.60767H49.0849V6.42787H39.3434V10.7119H47.9661V14.5321H39.3434V18.8708H49.4669V22.691H35.3867V2.60767Z" fill="white"/>
<defs>
<clipPath id="clip0_6594_1185">
<rect width="26.0081" height="26.0081" fill="white"/>
</clipPath>
</defs>
</svg>
